<svg xmlns="http://www.w3.org/2000/svg" version="1.1" xmlns:xlink="http://www.w3.org/1999/xlink" width="1500" height="1500" viewBox="0 0 1500 1500"><rect width="1500" height="1500" x="0" y="0" id="background" stroke="transparent" fill="#f5ba42"></rect><svg xml:space="preserve" width="1000" height="1000" data-version="2" data-id="lg_zrHXpT0V3yGfZomCQt" viewBox="0 0 566 158" x="250" y="250"><rect width="100%" height="100%" fill="transparent"></rect><path fill="#fff" d="M226.99 82.76q0-5.41-1.66-9.26-1.66-3.85-4.8-5.84-3.13-2-7.6-2-4.37 0-7.79 2.05-3.42 2.04-5.7 6.12-1.52-3.89-4.8-6.03-3.27-2.14-7.83-2.14-4.09 0-7.08 1.81-2.99 1.8-4.99 5.51v-6.37h-7.6v43.7h7.6v-26.6q0-3.42 1.24-5.89 1.23-2.47 3.51-3.75 2.28-1.28 5.42-1.28 4.27 0 6.31 2.66 2.05 2.66 2.05 8.26v26.6h7.6v-26.6q0-3.42 1.23-5.89 1.24-2.47 3.52-3.75 2.28-1.28 5.41-1.28 4.28 0 6.32 2.66t2.04 8.26v26.6h7.6Z"></path><rect width="59.85" height="44.65" x="-29.93" y="-22.32" fill="none" rx="0" ry="0" transform="translate(197.56 88.48)"></rect><path fill="#fff" d="M275.44 66.61h-8.55l-13.49 33.82 3.14.38-13.87-34.2h-9.03l16.72 37.53-11.97 27.07h8.55Z"></path><rect width="41.8" height="64.6" x="-20.9" y="-32.3" fill="none" rx="0" ry="0" transform="translate(255.04 99.41)"></rect><path fill="#fff" d="M315.34 84.19h22.14q-.86 3.89-2.71 7.31-1.85 3.42-4.7 6.08t-6.8 4.14q-3.94 1.47-8.88 1.47-7.03 0-12.73-3.33-5.7-3.32-9.07-9.21-3.37-5.89-3.37-13.59 0-7.79 3.37-13.63 3.37-5.84 9.07-9.17 5.7-3.32 12.73-3.32 7.6 0 13.21 2.99 5.6 2.99 8.74 8.31l5.7-5.22q-2.85-4.66-6.99-7.79-4.13-3.14-9.31-4.75-5.17-1.62-11.35-1.62-7.22 0-13.39 2.52-6.18 2.52-10.74 7.13-4.56 4.6-7.08 10.87-2.51 6.27-2.51 13.68t2.51 13.68q2.52 6.27 7.08 10.88 4.56 4.61 10.74 7.13 6.17 2.51 13.39 2.51 7.6 0 13.54-2.8 5.94-2.8 10.02-7.65 4.09-4.84 6.18-11.06 2.09-6.23 2.09-13.16h-30.88Z"></path><rect width="65.55" height="68.4" x="-32.77" y="-34.2" fill="none" rx="0" ry="0" transform="translate(313.94 77.56)"></rect><path fill="#fff" d="M374.53 111.26q7.03 0 12.2-2.8 5.18-2.8 8.6-8.31l-6.17-3.9q-2.38 3.99-5.8 5.94-3.42 1.95-7.88 1.95-4.47 0-7.6-1.9-3.14-1.9-4.75-5.51-1.62-3.61-1.62-8.74.1-5.04 1.76-8.5 1.66-3.47 4.75-5.32 3.09-1.86 7.46-1.86 3.7 0 6.46 1.62 2.75 1.61 4.32 4.46 1.57 2.85 1.57 6.75 0 .66-.29 1.66-.28 1-.57 1.47l3.04-4.37h-31.35v6.46H396q0-.19.04-.9.05-.71.05-1.38 0-6.93-2.47-11.97-2.47-5.03-7.08-7.74-4.6-2.71-11.06-2.71-6.46 0-11.36 2.85-4.89 2.85-7.6 7.98-2.7 5.13-2.7 11.97 0 6.75 2.61 11.88 2.61 5.13 7.31 8.03 4.71 2.89 10.79 2.89"></path><rect width="42.27" height="45.6" x="-21.14" y="-22.8" fill="none" rx="0" ry="0" transform="translate(375.45 88.96)"></rect><path fill="#fff" d="M434.57 83.71v26.6h7.6V82.76q0-7.88-4.04-12.49t-10.97-4.61q-4.28 0-7.56 1.9-3.27 1.9-5.46 5.89v-6.84h-7.6v43.7h7.6v-26.6q0-3.23 1.38-5.7t3.89-3.84q2.52-1.38 5.85-1.38 4.56 0 6.93 2.75 2.38 2.76 2.38 8.17"></path><rect width="35.63" height="44.65" x="-17.82" y="-22.32" fill="none" rx="0" ry="0" transform="translate(424.86 88.48)"></rect><path fill="#fff" d="M456.42 48.56q0 2.09 1.56 3.66 1.57 1.57 3.66 1.57 2.19 0 3.71-1.57t1.52-3.66q0-2.18-1.52-3.7t-3.71-1.52q-2.09 0-3.66 1.52-1.56 1.52-1.56 3.7m1.42 18.05v43.7h7.6v-43.7Z"></path><rect width="10.45" height="66.97" x="-5.22" y="-33.48" fill="none" rx="0" ry="0" transform="translate(462.14 77.33)"></rect><path fill="#fff" d="M488.72 93.21v-26.6h-7.6v27.55q0 7.79 4.08 12.45 4.09 4.65 10.93 4.65 4.37 0 7.6-1.94 3.23-1.95 5.41-5.85v6.84h7.6v-43.7h-7.6v26.6q0 3.23-1.38 5.7-1.37 2.47-3.89 3.85t-5.84 1.38q-4.56 0-6.94-2.85-2.37-2.85-2.37-8.08"></path><rect width="35.62" height="44.65" x="-17.81" y="-22.32" fill="none" rx="0" ry="0" transform="translate(499.43 89.44)"></rect><path fill="#fff" d="m532.8 96.92-5.99 3.7q1.24 2.57 3.66 5.04t5.94 4.04q3.51 1.56 7.88 1.56 6.75 0 10.88-3.8 4.13-3.8 4.13-9.5 0-3.89-1.85-6.36t-4.99-4.23q-3.13-1.76-6.93-3.28-2.28-.95-4.37-1.99-2.09-1.05-3.42-2.38-1.33-1.33-1.33-3.04 0-2.18 1.71-3.23 1.71-1.04 4.08-1.04 3.42 0 6.13 1.61 2.71 1.62 4.51 4.09l6.08-3.9q-1.33-2.47-3.7-4.37-2.38-1.9-5.47-3.04-3.08-1.14-6.6-1.14-3.51 0-6.79 1.24-3.28 1.23-5.32 3.8-2.04 2.56-2.04 6.46 0 3.8 1.94 6.32 1.95 2.51 4.85 4.08 2.9 1.57 5.75 2.71 2.56.95 4.84 2.04t3.75 2.66q1.48 1.57 1.48 3.85 0 2.56-1.86 4.04-1.85 1.47-5.08 1.47-2.66 0-4.89-1-2.23-1-3.94-2.71t-3.04-3.7"></path><rect width="32.49" height="45.6" x="-16.25" y="-22.8" fill="none" rx="0" ry="0" transform="translate(543.55 88.96)"></rect><path fill="#fff" d="M25.346 98.96c4.072-1.701 8.442-2.667 12.934-2.895v-11.25H23.345c.176 5.055.86 9.864 2.001 14.146m-1.983-18.234h14.935V69.39c-4.493-.228-8.863-1.193-12.917-2.878-1.158 4.3-1.86 9.143-2.018 14.215M26.61 62.58c3.668 1.58 7.616 2.492 11.688 2.72V48.312c-4.756 1.228-8.95 6.616-11.688 14.268m-5.02 2.088a39.071 39.071 0 0 1-7.072-5.054A34.481 34.481 0 0 0 5.69 80.726h13.584c.158-5.809.965-11.25 2.316-16.058m7.301-14.672a34.77 34.77 0 0 0-11.478 6.722 33.96 33.96 0 0 0 5.458 3.949c1.597-4.265 3.633-7.88 6.02-10.67m9.407 67.234v-17.076a34.387 34.387 0 0 0-11.706 2.738c2.72 7.705 6.932 13.11 11.706 14.338m8.301-63.408.158-1.334 1.299-.386c.035-.017.07-.017.105-.035-1.544-1.667-3.492-3.159-5.774-3.755v17.023c1.667-.088 3.3-.316 4.914-.65-1.193-6.194-.72-10.757-.702-10.863M17.361 108.79a34.542 34.542 0 0 0 11.513 6.757c-2.387-2.79-4.44-6.441-6.038-10.741a35.127 35.127 0 0 0-5.475 3.984m1.913-23.973H5.69a34.577 34.577 0 0 0 8.775 21.077c2.194-1.965 4.563-3.685 7.108-5.09-1.334-4.79-2.141-10.196-2.3-15.987m23.113 15.338v17.076c4.791-1.21 9.02-6.598 11.759-14.32a35.32 35.32 0 0 0-11.759-2.756M61.34 62.668c1.106 5.213 4.09 11.759 11.706 16.55 7.617-4.791 10.6-11.337 11.706-16.55-4.318-1.702-8.249-3.58-11.706-5.65-3.475 2.07-7.389 3.966-11.706 5.65M48.266 68.67c-1.93.403-3.896.649-5.879.754v11.302h11.706c-2.896-4.036-4.704-8.213-5.827-12.056"></path><path fill="#fff" d="M95.51 55.612c-12.828-3.966-19.708-8.704-22.48-10.986-2.774 2.282-9.636 7.02-22.482 10.986-.228 5.353.456 25.325 22.481 35.153 22.026-9.828 22.728-29.8 22.482-35.153m-6.422 6.055c-.983 6.511-4.388 15.567-15.023 21.692l-1.018.597-1.018-.597c-10.635-6.125-14.04-15.18-15.023-21.71l-.246-1.632 1.545-.579c5.16-1.93 9.758-4.124 13.654-6.546l1.07-.667 1.07.667c3.915 2.422 8.513 4.633 13.655 6.564l1.544.579zM57.305 84.816H42.369v11.25c4.51.227 8.88 1.192 12.952 2.895 1.141-4.265 1.843-9.056 1.984-14.145m3.93 3.51c-.333 4.457-1.087 8.634-2.175 12.46 2.562 1.422 4.966 3.159 7.195 5.16a34.445 34.445 0 0 0 6.546-10.829l-.561-.245c-4.37-1.843-7.986-4.09-11.004-6.546m-9.617 27.325a34.776 34.776 0 0 0 11.724-6.827 33.657 33.657 0 0 0-5.581-4.037c-1.615 4.353-3.703 8.056-6.143 10.864"></path><path stroke="#fff" stroke-width="4.17" d="M126.658 1.524v154.952"></path></svg></svg>