<svg xmlns="http://www.w3.org/2000/svg" version="1.1" xmlns:xlink="http://www.w3.org/1999/xlink" width="1500" height="1500" viewBox="0 0 1500 1500"><rect width="1500" height="1500" x="0" y="0" id="background" stroke="transparent" fill="#f5ba42"></rect><svg xml:space="preserve" width="1000" height="1000" data-version="2" data-id="lg_zrHXpT0V3yGfZomCQt" viewBox="0 0 639 158" x="250" y="250"><rect width="100%" height="100%" fill="transparent"></rect><path fill="#fff" d="m169.87 96.92-5.99 3.7q1.24 2.57 3.66 5.04t5.94 4.04q3.51 1.56 7.88 1.56 6.75 0 10.88-3.8 4.13-3.8 4.13-9.5 0-3.89-1.85-6.36t-4.99-4.23q-3.13-1.76-6.93-3.28-2.28-.95-4.37-1.99-2.09-1.05-3.42-2.38-1.33-1.33-1.33-3.04 0-2.18 1.71-3.23 1.71-1.04 4.08-1.04 3.42 0 6.13 1.61 2.71 1.62 4.51 4.09l6.08-3.9q-1.33-2.47-3.7-4.37-2.38-1.9-5.47-3.04-3.08-1.14-6.6-1.14-3.51 0-6.79 1.24-3.28 1.23-5.32 3.8-2.04 2.56-2.04 6.46 0 3.8 1.94 6.32 1.95 2.51 4.85 4.08 2.9 1.57 5.75 2.71 2.56.95 4.84 2.04t3.75 2.66q1.48 1.57 1.48 3.85 0 2.56-1.86 4.04-1.85 1.47-5.08 1.47-2.66 0-4.89-1-2.23-1-3.94-2.71t-3.04-3.7"></path><rect width="32.49" height="45.6" x="-16.25" y="-22.8" fill="none" rx="0" ry="0" transform="translate(180.63 88.96)"></rect><path fill="#fff" d="M234.37 83.71v26.6h7.6V82.76q0-7.88-4.04-12.49-4.03-4.61-10.97-4.61-4.27 0-7.55 1.9-3.28 1.9-5.46 5.89v-6.84h-7.6v43.7h7.6v-26.6q0-3.23 1.37-5.7 1.38-2.47 3.9-3.84 2.52-1.38 5.84-1.38 4.56 0 6.94 2.75 2.37 2.76 2.37 8.17"></path><rect width="35.62" height="44.65" x="-17.81" y="-22.32" fill="none" rx="0" ry="0" transform="translate(224.66 88.48)"></rect><path fill="#fff" d="M259.64 96.82q0-2.37 1.14-4.08t3.47-2.66q2.33-.95 6.03-.95 3.99 0 7.51 1 3.51.99 6.84 3.27v-4.46q-.67-.86-2.57-2.23-1.9-1.38-5.08-2.47-3.18-1.1-7.93-1.1-8.08 0-12.59 3.85t-4.51 10.21q0 4.47 2.09 7.6 2.09 3.14 5.55 4.8 3.47 1.66 7.46 1.66 3.61 0 7.27-1.33 3.66-1.33 6.17-4.08 2.52-2.76 2.52-6.94l-1.52-5.7q0 3.42-1.66 6.04-1.66 2.61-4.47 4.03-2.8 1.43-6.31 1.43-2.76 0-4.9-.9-2.13-.91-3.32-2.71-1.19-1.81-1.19-4.28m-1.14-20.14q1.05-.76 2.85-1.8 1.81-1.05 4.42-1.81t5.84-.76q2 0 3.8.38 1.81.38 3.18 1.24 1.38.85 2.14 2.33.76 1.47.76 3.75v30.3h7.6V78.96q0-4.27-2.14-7.22-2.13-2.94-5.98-4.51-3.85-1.57-8.98-1.57-6.08 0-10.4 1.81-4.32 1.8-6.79 3.61Z"></path><rect width="37.14" height="45.6" x="-18.57" y="-22.8" fill="none" rx="0" ry="0" transform="translate(271.02 88.96)"></rect><path fill="#fff" d="M309.04 131.21v-64.6h-7.6v64.6Zm36.58-42.75q0-7.12-2.95-12.2-2.94-5.09-7.84-7.84-4.89-2.76-10.87-2.76-5.42 0-9.55 2.76-4.13 2.75-6.46 7.84-2.33 5.08-2.33 12.2 0 7.03 2.33 12.16t6.46 7.89q4.13 2.75 9.55 2.75 5.98 0 10.87-2.75 4.9-2.76 7.84-7.89 2.95-5.13 2.95-12.16m-7.7 0q0 5.04-2.04 8.55-2.04 3.52-5.42 5.32-3.37 1.81-7.45 1.81-3.33 0-6.56-1.81-3.23-1.8-5.32-5.32-2.09-3.51-2.09-8.55 0-5.03 2.09-8.55 2.09-3.51 5.32-5.32 3.23-1.8 6.56-1.8 4.08 0 7.45 1.8 3.38 1.81 5.42 5.32 2.04 3.52 2.04 8.55"></path><rect width="44.18" height="65.55" x="-22.09" y="-32.77" fill="none" rx="0" ry="0" transform="translate(324.03 98.94)"></rect><path fill="#fff" d="M387.42 84.19h22.13q-.85 3.89-2.71 7.31-1.85 3.42-4.7 6.08t-6.79 4.14q-3.94 1.47-8.88 1.47-7.03 0-12.73-3.33-5.7-3.32-9.08-9.21-3.37-5.89-3.37-13.59 0-7.79 3.37-13.63 3.38-5.84 9.08-9.17 5.7-3.32 12.73-3.32 7.6 0 13.2 2.99 5.61 2.99 8.74 8.31l5.7-5.22q-2.85-4.66-6.98-7.79-4.13-3.14-9.31-4.75-5.18-1.62-11.35-1.62-7.22 0-13.4 2.52-6.17 2.52-10.73 7.13-4.56 4.6-7.08 10.87-2.52 6.27-2.52 13.68t2.52 13.68q2.52 6.27 7.08 10.88 4.56 4.61 10.73 7.13 6.18 2.51 13.4 2.51 7.6 0 13.53-2.8 5.94-2.8 10.03-7.65 4.08-4.84 6.17-11.06 2.09-6.23 2.09-13.16h-30.87Z"></path><rect width="65.55" height="68.4" x="-32.77" y="-34.2" fill="none" rx="0" ry="0" transform="translate(386.01 77.56)"></rect><path fill="#fff" d="M446.6 111.26q7.03 0 12.21-2.8 5.18-2.8 8.6-8.31l-6.18-3.9q-2.37 3.99-5.79 5.94-3.42 1.95-7.89 1.95-4.46 0-7.6-1.9-3.13-1.9-4.75-5.51-1.61-3.61-1.61-8.74.09-5.04 1.75-8.5 1.67-3.47 4.75-5.32 3.09-1.86 7.46-1.86 3.71 0 6.46 1.62 2.76 1.61 4.32 4.46 1.57 2.85 1.57 6.75 0 .66-.28 1.66-.29 1-.57 1.47l3.04-4.37h-31.35v6.46h37.33q0-.19.05-.9t.05-1.38q0-6.93-2.47-11.97-2.47-5.03-7.08-7.74-4.61-2.71-11.07-2.71t-11.35 2.85q-4.89 2.85-7.6 7.98-2.71 5.13-2.71 11.97 0 6.75 2.61 11.88 2.62 5.13 7.32 8.03 4.7 2.89 10.78 2.89"></path><rect width="42.28" height="45.6" x="-21.14" y="-22.8" fill="none" rx="0" ry="0" transform="translate(447.53 88.96)"></rect><path fill="#fff" d="M506.64 83.71v26.6h7.6V82.76q0-7.88-4.04-12.49-4.03-4.61-10.97-4.61-4.27 0-7.55 1.9-3.28 1.9-5.46 5.89v-6.84h-7.6v43.7h7.6v-26.6q0-3.23 1.37-5.7 1.38-2.47 3.9-3.84 2.52-1.38 5.84-1.38 4.56 0 6.94 2.75 2.37 2.76 2.37 8.17"></path><rect width="35.62" height="44.65" x="-17.81" y="-22.32" fill="none" rx="0" ry="0" transform="translate(496.93 88.48)"></rect><path fill="#fff" d="M528.49 48.56q0 2.09 1.57 3.66 1.57 1.57 3.66 1.57 2.18 0 3.7-1.57t1.52-3.66q0-2.18-1.52-3.7t-3.7-1.52q-2.09 0-3.66 1.52-1.57 1.52-1.57 3.7m1.43 18.05v43.7h7.6v-43.7Z"></path><rect width="10.45" height="66.97" x="-5.22" y="-33.48" fill="none" rx="0" ry="0" transform="translate(534.22 77.33)"></rect><path fill="#fff" d="M560.79 93.21v-26.6h-7.6v27.55q0 7.79 4.09 12.45 4.08 4.65 10.92 4.65 4.37 0 7.6-1.94 3.23-1.95 5.42-5.85v6.84h7.6v-43.7h-7.6v26.6q0 3.23-1.38 5.7t-3.9 3.85q-2.51 1.38-5.84 1.38-4.56 0-6.93-2.85-2.38-2.85-2.38-8.08"></path><rect width="35.63" height="44.65" x="-17.82" y="-22.32" fill="none" rx="0" ry="0" transform="translate(571.5 89.44)"></rect><path fill="#fff" d="m604.87 96.92-5.98 3.7q1.23 2.57 3.65 5.04 2.43 2.47 5.94 4.04 3.52 1.56 7.89 1.56 6.74 0 10.87-3.8 4.14-3.8 4.14-9.5 0-3.89-1.86-6.36-1.85-2.47-4.98-4.23-3.14-1.76-6.94-3.28-2.28-.95-4.37-1.99-2.09-1.05-3.42-2.38-1.33-1.33-1.33-3.04 0-2.18 1.71-3.23 1.71-1.04 4.09-1.04 3.42 0 6.12 1.61 2.71 1.62 4.52 4.09l6.08-3.9q-1.33-2.47-3.71-4.37-2.37-1.9-5.46-3.04-3.09-1.14-6.6-1.14-3.52 0-6.8 1.24-3.27 1.23-5.32 3.8-2.04 2.56-2.04 6.46 0 3.8 1.95 6.32 1.95 2.51 4.84 4.08 2.9 1.57 5.75 2.71 2.57.95 4.85 2.04t3.75 2.66q1.47 1.57 1.47 3.85 0 2.56-1.85 4.04-1.85 1.47-5.08 1.47-2.66 0-4.9-1-2.23-1-3.94-2.71t-3.04-3.7"></path><rect width="32.49" height="45.6" x="-16.25" y="-22.8" fill="none" rx="0" ry="0" transform="translate(615.63 88.96)"></rect><path fill="#fff" d="M26.266 98.96c4.072-1.701 8.442-2.667 12.934-2.895v-11.25H24.265c.176 5.055.86 9.864 2.001 14.146m-1.983-18.234h14.935V69.39c-4.493-.228-8.863-1.193-12.917-2.878-1.158 4.3-1.86 9.143-2.018 14.215M27.53 62.58c3.668 1.58 7.616 2.492 11.688 2.72V48.312c-4.756 1.228-8.95 6.616-11.688 14.268m-5.02 2.088a39.071 39.071 0 0 1-7.072-5.054A34.481 34.481 0 0 0 6.61 80.726h13.584c.158-5.809.965-11.25 2.316-16.058m7.301-14.672a34.77 34.77 0 0 0-11.478 6.722 33.96 33.96 0 0 0 5.458 3.949c1.597-4.265 3.633-7.88 6.02-10.67m9.407 67.234v-17.076a34.387 34.387 0 0 0-11.706 2.738c2.72 7.705 6.932 13.11 11.706 14.338m8.301-63.408.158-1.334 1.299-.386c.035-.017.07-.017.105-.035-1.544-1.667-3.492-3.159-5.774-3.755v17.023c1.667-.088 3.3-.316 4.914-.65-1.193-6.194-.72-10.757-.702-10.863M18.281 108.79a34.542 34.542 0 0 0 11.513 6.757c-2.387-2.79-4.44-6.441-6.038-10.741a35.127 35.127 0 0 0-5.475 3.984m1.913-23.973H6.61a34.577 34.577 0 0 0 8.775 21.077c2.194-1.965 4.563-3.685 7.108-5.09-1.334-4.79-2.141-10.196-2.3-15.987m23.113 15.338v17.076c4.791-1.21 9.02-6.598 11.759-14.32a35.32 35.32 0 0 0-11.759-2.756M62.26 62.668c1.106 5.213 4.09 11.759 11.706 16.55 7.617-4.791 10.6-11.337 11.706-16.55-4.318-1.702-8.249-3.58-11.706-5.65-3.475 2.07-7.389 3.966-11.706 5.65M49.186 68.67c-1.93.403-3.896.649-5.879.754v11.302h11.706c-2.896-4.036-4.704-8.213-5.827-12.056"></path><path fill="#fff" d="M96.43 55.612c-12.828-3.966-19.708-8.704-22.48-10.986-2.774 2.282-9.636 7.02-22.482 10.986-.228 5.353.456 25.325 22.481 35.153 22.026-9.828 22.728-29.8 22.482-35.153m-6.422 6.055c-.983 6.511-4.388 15.567-15.023 21.692l-1.018.597-1.018-.597c-10.635-6.125-14.04-15.18-15.023-21.71l-.246-1.632 1.545-.579c5.16-1.93 9.758-4.124 13.654-6.546l1.07-.667 1.07.667c3.915 2.422 8.513 4.633 13.655 6.564l1.544.579zM58.225 84.816H43.289v11.25c4.51.227 8.88 1.192 12.952 2.895 1.141-4.265 1.843-9.056 1.984-14.145m3.93 3.51c-.333 4.457-1.087 8.634-2.175 12.46 2.562 1.422 4.966 3.159 7.195 5.16a34.445 34.445 0 0 0 6.546-10.829l-.561-.245c-4.37-1.843-7.986-4.09-11.004-6.546m-9.617 27.325a34.776 34.776 0 0 0 11.724-6.827 33.657 33.657 0 0 0-5.581-4.037c-1.615 4.353-3.703 8.056-6.143 10.864"></path><path stroke="#fff" stroke-width="4.17" d="M127.578 1.524v154.952"></path></svg></svg>